PathFileType   4   (X/Y/Z)
DataRate	CameraRate	NumFrames	NumMarkers	Units	OrigDataRate	OrigDataStartFrame	OrigNumFrames
120.0	120.0	10	37	mm	120.0	44	116
Frame#	Time	midhip	hip_r	hip_l	knee_r	knee_l	ankle_r	ankle_l	midasis	asis_r	asis_l	psis_r	psis_l	epicondLat_r	epicondLat_l	epicondMed_r	epicondMed_l	malleolusLat_r	malleolusLat_l	malleolusMedv_r	malleolusMedv_l	neck	subclavicle_r	subclavicle_l	sternalnotch	xyphoidprocess	thighwand_r	thighwand_l	upperleg1_r	upperleg1_l	upperleg2_r	upperleg2_l	shankwand_r	shankwand_l	lowerleg1_r	lowerleg1_l	toe_r	toe_l
 	 	X1	Y1	Z1	X2	Y2	Z2	X3	Y3	Z3	X4	Y4	Z4	X5	Y5	Z5	X6	Y6	Z6	X7	Y7	Z7	X8	Y8	Z8	X9	Y9	Z9	X10	Y10	Z10	X11	Y11	Z11	X12	Y12	Z12	X13	Y13	Z13	X14	Y14	Z14	X15	Y15	Z15	X16	Y16	Z16	X17	Y17	Z17	X18	Y18	Z18	X19	Y19	Z19	X20	Y20	Z20	X21	Y21	Z21	X22	Y22	Z22	X23	Y23	Z23	X24	Y24	Z24	X25	Y25	Z25	X26	Y26	Z26	X27	Y27	Z27	X28	Y28	Z28	X29	Y29	Z29	X30	Y30	Z30	X31	Y31	Z31	X32	Y32	Z32	X33	Y33	Z33	X34	Y34	Z34	X35	Y35	Z35	X36	Y36	Z36	X37	Y37	Z37

	44	0.49167	931.934	803.278	-307.451	931.074	784.782	-229.019	901.304	790.152	-378.109	1095.653	437.535	-235.575	831.965	417.825	-365.619	1224.080	83.718	-231.195	694.654	76.940	-343.328	1007.068	859.807	-316.003	1026.332	855.598	-199.726	987.803	864.016	-432.280	823.898	919.963	-248.339	812.225	919.701	-301.902	1108.809	442.708	-179.324	836.456	415.051	-423.378	1072.672	424.041	-288.542	850.218	433.673	-301.887	1213.900	80.500	-192.646	681.060	79.963	-380.826	1235.584	97.161	-263.038	704.846	86.047	-316.709	910.434	1359.907	-305.608	1039.466	1300.771	-263.322	1032.079	1295.311	-368.936	1032.292	1294.834	-314.972	1072.933	1225.765	-318.294	1167.520	617.263	-273.390	896.417	542.785	-514.255	1097.850	637.636	-204.174	843.317	601.582	-458.131	1121.811	552.533	-204.531	840.002	515.399	-441.472	1183.665	158.353	-121.714	826.547	161.718	-344.905	1184.758	166.104	-163.980	787.655	176.437	-351.579	1324.255	90.500	-212.835	792.393	41.877	-372.019
	45	0.50000	942.565	801.744	-305.882	941.680	782.966	-228.491	911.038	788.426	-377.401	1105.137	435.815	-235.058	838.903	416.742	-365.751	1237.468	83.267	-230.622	695.654	78.272	-343.258	1016.975	858.287	-315.825	1036.942	853.993	-199.541	997.008	862.582	-432.109	833.949	917.960	-246.820	822.218	917.574	-300.185	1119.069	441.315	-179.025	843.084	414.119	-423.541	1080.539	422.079	-286.973	856.895	431.029	-303.153	1227.259	79.920	-192.092	681.934	81.591	-380.685	1249.018	96.620	-262.381	706.969	87.055	-317.048	920.392	1358.251	-304.623	1049.182	1299.164	-262.310	1042.133	1293.736	-368.034	1042.296	1293.230	-314.154	1082.846	1224.185	-317.244	1176.850	615.196	-274.993	903.578	542.034	-514.068	1108.826	636.282	-205.404	851.235	601.018	-457.074	1132.014	551.163	-205.171	847.102	514.823	-441.602	1195.986	157.593	-121.187	829.060	160.648	-345.357	1196.845	165.544	-163.916	790.011	175.805	-351.936	1337.479	90.791	-211.732	792.742	42.054	-372.056
	46	0.50833	952.962	799.793	-303.381	952.354	781.255	-227.888	920.896	786.726	-376.627	1115.009	434.245	-234.555	846.309	415.582	-366.058	1248.926	82.314	-230.339	696.794	79.813	-343.396	1027.012	856.786	-315.587	1047.639	852.470	-199.288	1006.385	861.103	-431.887	844.145	916.102	-245.256	832.433	915.534	-298.361	1129.662	440.041	-178.736	850.245	413.145	-423.873	1090.094	421.357	-287.009	865.559	429.370	-302.942	1238.627	78.856	-191.843	682.996	83.435	-380.766	1260.368	95.893	-262.081	708.367	88.273	-317.519	930.449	1356.793	-303.298	1059.062	1297.475	-261.283	1052.144	1292.066	-367.218	1052.359	1291.695	-313.247	1092.684	1222.449	-316.281	1186.674	613.868	-276.546	911.254	541.350	-513.930	1119.780	635.968	-206.233	859.627	600.232	-456.082	1143.070	550.215	-206.247	855.084	513.689	-440.904	1206.776	156.342	-120.882	831.718	159.662	-345.914	1207.753	163.791	-163.341	792.297	175.066	-353.175	1348.708	89.946	-210.619	793.125	42.220	-372.246
	47	0.51667	962.823	797.202	-300.531	963.132	779.681	-227.173	930.924	785.070	-375.755	1125.242	432.824	-234.085	854.217	414.357	-366.567	1258.556	80.888	-230.337	698.096	81.629	-343.758	1037.214	855.334	-315.255	1058.452	851.070	-198.926	1015.976	859.597	-431.584	854.512	914.405	-243.647	842.862	913.618	-296.453	1140.540	438.866	-178.466	857.974	412.146	-424.403	1101.556	421.094	-287.040	875.140	427.905	-302.601	1248.135	77.350	-191.881	684.283	85.551	-381.092	1269.160	94.364	-262.336	709.250	90.007	-317.681	940.678	1355.388	-302.244	1069.541	1295.790	-260.550	1062.073	1290.745	-366.274	1062.490	1290.247	-312.268	1102.796	1220.912	-315.874	1196.992	613.159	-277.980	919.483	540.743	-513.860	1131.099	635.866	-206.567	868.168	599.146	-455.268	1155.048	550.234	-207.114	863.674	512.578	-440.270	1216.205	154.645	-120.812	834.540	158.813	-346.555	1216.840	161.465	-163.096	795.385	175.103	-353.941	1358.103	87.953	-209.589	793.548	42.382	-372.592
	48	0.52500	973.120	795.027	-297.839	974.043	778.270	-226.325	941.169	783.479	-374.767	1135.785	431.555	-233.648	862.657	413.081	-367.302	1266.546	79.098	-230.589	699.588	83.794	-344.356	1047.614	853.964	-314.799	1069.397	849.831	-198.434	1025.830	858.098	-431.163	865.072	912.883	-241.992	853.466	911.859	-294.501	1151.645	437.783	-178.207	866.297	411.143	-425.155	1113.445	421.014	-287.735	885.544	425.542	-304.059	1256.000	75.519	-192.170	685.830	88.006	-381.679	1275.576	91.820	-263.103	710.527	92.372	-318.136	951.152	1353.893	-300.967	1079.953	1294.437	-259.408	1072.091	1289.669	-365.119	1072.704	1288.906	-311.233	1113.049	1219.729	-315.058	1207.770	612.918	-279.232	928.286	540.222	-513.877	1142.829	635.357	-206.712	876.528	598.210	-454.621	1167.199	550.399	-208.017	872.966	512.012	-440.739	1224.492	152.613	-120.982	837.562	158.144	-347.277	1224.184	158.841	-163.517	798.541	175.187	-354.488	1365.919	84.886	-208.728	794.026	42.556	-373.078
	49	0.53333	984.456	793.946	-295.801	985.114	777.051	-225.318	951.665	781.983	-373.641	1146.572	430.455	-233.221	871.647	411.771	-368.278	1273.156	77.112	-231.048	701.308	86.373	-345.199	1058.230	852.723	-314.188	1080.486	848.796	-197.785	1035.974	856.649	-430.591	875.826	911.544	-240.287	864.203	910.285	-292.550	1162.911	436.806	-177.933	875.229	410.159	-426.145	1126.165	420.898	-289.213	895.781	424.731	-304.230	1262.502	73.532	-192.660	687.662	90.868	-382.529	1281.510	89.028	-263.832	712.336	95.024	-319.164	961.578	1352.732	-299.427	1090.266	1293.310	-257.980	1082.310	1288.306	-364.080	1083.004	1287.689	-310.140	1123.265	1218.454	-313.693	1218.938	613.009	-280.245	937.680	539.799	-514.004	1154.588	634.790	-207.255	885.892	597.444	-454.738	1179.462	550.494	-209.197	882.684	511.148	-440.862	1231.869	150.412	-121.381	840.836	157.689	-348.119	1231.142	156.020	-164.125	801.678	175.235	-355.378	1372.469	80.910	-208.100	794.581	42.758	-373.678
	50	0.54167	995.680	792.897	-293.919	996.346	776.051	-224.145	962.421	780.608	-372.372	1157.537	429.562	-232.767	881.200	410.447	-369.501	1278.674	75.120	-231.653	703.312	89.414	-346.276	1069.060	851.646	-313.409	1091.708	848.005	-196.972	1046.411	855.288	-429.845	886.773	910.398	-238.532	875.035	908.915	-290.633	1174.278	435.978	-177.607	884.787	409.211	-427.377	1138.047	421.284	-290.508	905.612	424.026	-304.075	1267.945	71.574	-193.282	689.805	94.196	-383.621	1286.524	86.318	-264.672	714.467	97.672	-320.365	971.567	1351.862	-297.879	1100.914	1292.250	-256.923	1092.640	1286.921	-363.121	1093.389	1286.610	-308.967	1133.735	1217.218	-312.574	1230.395	613.349	-280.978	947.690	539.486	-514.258	1166.751	634.827	-207.786	896.524	596.616	-454.926	1191.669	550.596	-210.223	892.741	510.141	-440.828	1238.574	148.235	-121.981	844.428	157.471	-349.157	1237.527	153.181	-164.744	805.656	175.545	-356.402	1378.076	76.257	-207.742	795.236	42.997	-374.367
	51	0.55000	1007.005	792.187	-292.287	1007.719	775.290	-222.809	973.429	779.380	-370.965	1168.635	428.932	-232.246	891.327	409.126	-370.979	1283.376	73.284	-232.342	705.683	92.940	-347.563	1080.086	850.765	-312.456	1103.035	847.480	-195.996	1057.137	854.049	-428.915	897.868	909.468	-236.739	885.929	907.768	-288.767	1185.712	435.366	-177.192	894.993	408.315	-428.857	1149.432	422.386	-292.166	915.603	421.817	-305.638	1272.618	69.803	-193.973	692.302	98.030	-384.913	1290.139	83.091	-265.994	717.068	100.300	-321.902	981.655	1350.801	-296.063	1111.628	1291.241	-256.095	1102.798	1286.161	-361.893	1103.848	1285.714	-307.719	1144.316	1216.422	-311.925	1242.031	613.914	-281.399	958.345	539.311	-514.651	1179.215	635.112	-207.592	907.086	595.854	-454.812	1203.989	550.745	-211.072	903.117	509.312	-441.572	1244.830	146.261	-122.733	848.430	157.501	-350.485	1242.982	150.496	-166.214	810.187	176.162	-357.482	1383.024	71.208	-207.669	796.012	43.272	-375.124
	52	0.55833	1019.274	792.690	-291.061	1019.178	774.784	-221.331	984.654	778.334	-369.447	1179.844	428.629	-231.630	902.048	407.828	-372.721	1287.487	71.708	-233.065	708.542	96.952	-349.029	1091.272	850.099	-311.332	1114.409	847.231	-194.877	1068.135	852.966	-427.786	909.048	908.786	-234.927	896.862	906.862	-286.966	1197.193	435.045	-176.659	905.873	407.486	-430.594	1160.589	423.218	-292.561	923.981	418.981	-308.075	1276.759	68.318	-194.679	695.228	102.394	-386.354	1293.843	80.289	-267.162	720.081	103.581	-323.830	991.998	1349.750	-294.360	1122.079	1290.214	-254.595	1113.196	1285.690	-360.494	1114.368	1285.053	-306.408	1154.861	1215.752	-310.886	1253.738	614.727	-281.487	969.677	539.303	-515.204	1191.909	635.423	-207.344	918.249	595.014	-454.644	1216.261	551.053	-211.334	913.369	508.896	-442.808	1250.818	144.609	-123.574	852.957	157.783	-352.207	1248.188	149.238	-168.001	814.579	177.304	-358.686	1387.504	66.059	-207.868	796.925	43.566	-375.928
	53	0.56667	1028.321	789.936	-289.047	1030.671	774.548	-219.729	996.049	777.503	-367.835	1191.156	428.701	-230.904	913.381	406.579	-374.735	1291.152	70.421	-233.773	712.046	101.432	-350.651	1102.571	849.671	-310.044	1125.778	847.265	-193.632	1079.363	852.078	-426.456	920.260	908.379	-233.122	907.824	906.208	-285.240	1208.708	435.072	-175.992	917.461	406.746	-432.591	1171.402	423.652	-291.106	934.214	416.055	-310.183	1280.519	67.146	-195.352	698.702	107.297	-387.901	1297.556	78.745	-267.956	723.313	108.083	-325.370	1002.356	1348.840	-293.107	1132.376	1289.425	-252.754	1124.183	1285.110	-359.148	1124.922	1284.667	-305.038	1165.673	1215.152	-309.209	1265.430	615.836	-281.208	981.717	539.478	-515.941	1204.561	636.137	-207.216	930.595	594.036	-454.225	1228.301	551.506	-210.809	924.736	508.150	-443.654	1256.650	143.316	-124.421	858.135	158.314	-354.429	1253.478	149.321	-168.988	819.484	178.928	-360.357	1391.591	61.092	-208.291	797.997	43.862	-376.754
